<mxfile host="app.diagrams.net" agent="Mozilla/5.0 (X11; Ubuntu; Linux x86_64; rv:139.0) Gecko/20100101 Firefox/139.0" version="27.1.4">
  <diagram name="system detail design 최종본" id="0PGDbCwG8rLKUNUfAKi9">
    <mxGraphModel dx="4342" dy="-1681" grid="0" gridSize="10" guides="1" tooltips="1" connect="1" arrows="1" fold="1" page="0" pageScale="1" pageWidth="827" pageHeight="1169" math="0" shadow="0">
      <root>
        <mxCell id="6SvywFntV4BqXfso9tdv-0" />
        <mxCell id="6SvywFntV4BqXfso9tdv-1" parent="6SvywFntV4BqXfso9tdv-0" />
        <mxCell id="6SvywFntV4BqXfso9tdv-206" value="Controller" style="swimlane;whiteSpace=wrap;html=1;fillColor=#f5f5f5;strokeColor=#666666;fontColor=#333333;" parent="6SvywFntV4BqXfso9tdv-1" vertex="1">
          <mxGeometry x="-2775" y="2647" width="2054" height="1158" as="geometry" />
        </mxCell>
        <mxCell id="6SvywFntV4BqXfso9tdv-207" value="" style="edgeStyle=orthogonalEdgeStyle;rounded=0;orthogonalLoop=1;jettySize=auto;html=1;entryX=0;entryY=0.5;entryDx=0;entryDy=0;" parent="6SvywFntV4BqXfso9tdv-206" source="6SvywFntV4BqXfso9tdv-236" target="6SvywFntV4BqXfso9tdv-210" edge="1">
          <mxGeometry relative="1" as="geometry" />
        </mxCell>
        <mxCell id="6SvywFntV4BqXfso9tdv-208" style="edgeStyle=orthogonalEdgeStyle;rounded=0;orthogonalLoop=1;jettySize=auto;html=1;entryX=0.5;entryY=0;entryDx=0;entryDy=0;" parent="6SvywFntV4BqXfso9tdv-206" source="6SvywFntV4BqXfso9tdv-210" target="6SvywFntV4BqXfso9tdv-214" edge="1">
          <mxGeometry relative="1" as="geometry" />
        </mxCell>
        <mxCell id="6SvywFntV4BqXfso9tdv-209" style="edgeStyle=orthogonalEdgeStyle;rounded=0;orthogonalLoop=1;jettySize=auto;html=1;entryX=0.5;entryY=1;entryDx=0;entryDy=0;" parent="6SvywFntV4BqXfso9tdv-206" source="6SvywFntV4BqXfso9tdv-210" target="6SvywFntV4BqXfso9tdv-216" edge="1">
          <mxGeometry relative="1" as="geometry" />
        </mxCell>
        <mxCell id="6SvywFntV4BqXfso9tdv-210" value="&lt;div&gt;device&amp;nbsp;&lt;/div&gt;&lt;div&gt;== IDLE&lt;/div&gt;" style="rhombus;whiteSpace=wrap;html=1;" parent="6SvywFntV4BqXfso9tdv-206" vertex="1">
          <mxGeometry x="390" y="360" width="100" height="100" as="geometry" />
        </mxCell>
        <mxCell id="6SvywFntV4BqXfso9tdv-211" value="" style="swimlane;startSize=0;fillColor=#ffe6cc;strokeColor=#d79b00;" parent="6SvywFntV4BqXfso9tdv-206" vertex="1">
          <mxGeometry x="530" y="430" width="305" height="140" as="geometry" />
        </mxCell>
        <mxCell id="6SvywFntV4BqXfso9tdv-212" value="robot state&lt;div&gt;== IDLE&lt;/div&gt;" style="rhombus;whiteSpace=wrap;html=1;fillColor=#ffe6cc;strokeColor=#d79b00;" parent="6SvywFntV4BqXfso9tdv-211" vertex="1">
          <mxGeometry x="20" y="20" width="100" height="100" as="geometry" />
        </mxCell>
        <mxCell id="6SvywFntV4BqXfso9tdv-213" style="edgeStyle=orthogonalEdgeStyle;rounded=0;orthogonalLoop=1;jettySize=auto;html=1;entryX=0;entryY=0.5;entryDx=0;entryDy=0;fillColor=#ffe6cc;strokeColor=#d79b00;exitX=1;exitY=0.5;exitDx=0;exitDy=0;" parent="6SvywFntV4BqXfso9tdv-211" source="6SvywFntV4BqXfso9tdv-212" target="6SvywFntV4BqXfso9tdv-214" edge="1">
          <mxGeometry relative="1" as="geometry">
            <mxPoint x="259.99999999999955" y="70" as="sourcePoint" />
          </mxGeometry>
        </mxCell>
        <mxCell id="6SvywFntV4BqXfso9tdv-214" value="name&lt;br&gt;&lt;div&gt;== Ramen&lt;/div&gt;" style="rhombus;whiteSpace=wrap;html=1;fillColor=#ffe6cc;strokeColor=#d79b00;" parent="6SvywFntV4BqXfso9tdv-211" vertex="1">
          <mxGeometry x="170" y="20" width="100" height="100" as="geometry" />
        </mxCell>
        <mxCell id="6SvywFntV4BqXfso9tdv-215" value="" style="swimlane;startSize=0;fillColor=#dae8fc;strokeColor=#6c8ebf;" parent="6SvywFntV4BqXfso9tdv-206" vertex="1">
          <mxGeometry x="530" y="245" width="305" height="140" as="geometry" />
        </mxCell>
        <mxCell id="6SvywFntV4BqXfso9tdv-216" value="name&amp;nbsp;&lt;span style=&quot;color: light-dark(rgb(0, 0, 0), rgb(255, 255, 255)); background-color: transparent;&quot;&gt;==&amp;nbsp;&lt;/span&gt;&lt;div&gt;&lt;span style=&quot;background-color: transparent; color: light-dark(rgb(0, 0, 0), rgb(255, 255, 255));&quot;&gt;(&lt;/span&gt;&lt;span style=&quot;background-color: transparent; color: light-dark(rgb(0, 0, 0), rgb(255, 255, 255));&quot;&gt;tri-&lt;/span&gt;&lt;span style=&quot;background-color: transparent; color: light-dark(rgb(0, 0, 0), rgb(255, 255, 255));&quot;&gt;) Gimbap&lt;/span&gt;&lt;/div&gt;" style="rhombus;whiteSpace=wrap;html=1;fillColor=#dae8fc;strokeColor=#6c8ebf;" parent="6SvywFntV4BqXfso9tdv-215" vertex="1">
          <mxGeometry x="170" y="20" width="100" height="100" as="geometry" />
        </mxCell>
        <mxCell id="6SvywFntV4BqXfso9tdv-217" style="edgeStyle=orthogonalEdgeStyle;rounded=0;orthogonalLoop=1;jettySize=auto;html=1;entryX=0;entryY=0.5;entryDx=0;entryDy=0;fillColor=#dae8fc;strokeColor=#6c8ebf;exitX=1;exitY=0.5;exitDx=0;exitDy=0;" parent="6SvywFntV4BqXfso9tdv-215" source="6SvywFntV4BqXfso9tdv-218" target="6SvywFntV4BqXfso9tdv-216" edge="1">
          <mxGeometry relative="1" as="geometry">
            <mxPoint x="259.99999999999955" y="70" as="sourcePoint" />
          </mxGeometry>
        </mxCell>
        <mxCell id="6SvywFntV4BqXfso9tdv-218" value="robot state&lt;div&gt;== IDLE&lt;/div&gt;" style="rhombus;whiteSpace=wrap;html=1;fillColor=#dae8fc;strokeColor=#6c8ebf;" parent="6SvywFntV4BqXfso9tdv-215" vertex="1">
          <mxGeometry x="20" y="20" width="100" height="100" as="geometry" />
        </mxCell>
        <mxCell id="6SvywFntV4BqXfso9tdv-219" style="edgeStyle=orthogonalEdgeStyle;rounded=0;orthogonalLoop=1;jettySize=auto;html=1;exitX=1;exitY=0.5;exitDx=0;exitDy=0;" parent="6SvywFntV4BqXfso9tdv-206" source="6SvywFntV4BqXfso9tdv-220" edge="1">
          <mxGeometry relative="1" as="geometry">
            <mxPoint x="140.1764705882356" y="177.64705882352928" as="targetPoint" />
          </mxGeometry>
        </mxCell>
        <mxCell id="6SvywFntV4BqXfso9tdv-220" value="Task Manager" style="rounded=0;whiteSpace=wrap;html=1;" parent="6SvywFntV4BqXfso9tdv-206" vertex="1">
          <mxGeometry x="21" y="148" width="120" height="60" as="geometry" />
        </mxCell>
        <mxCell id="6SvywFntV4BqXfso9tdv-221" value="" style="endArrow=classic;html=1;rounded=0;fontSize=12;startSize=8;endSize=8;curved=1;exitX=0.5;exitY=1;exitDx=0;exitDy=0;entryX=0.5;entryY=0;entryDx=0;entryDy=0;" parent="6SvywFntV4BqXfso9tdv-206" source="6SvywFntV4BqXfso9tdv-220" target="6SvywFntV4BqXfso9tdv-271" edge="1">
          <mxGeometry relative="1" as="geometry">
            <mxPoint x="59.960000000000036" y="328" as="sourcePoint" />
            <mxPoint x="80" y="308" as="targetPoint" />
          </mxGeometry>
        </mxCell>
        <mxCell id="6SvywFntV4BqXfso9tdv-222" value="" style="endArrow=classic;html=1;rounded=0;fontSize=12;startSize=8;endSize=8;curved=1;exitX=1;exitY=0.25;exitDx=0;exitDy=0;entryX=0;entryY=0.25;entryDx=0;entryDy=0;" parent="6SvywFntV4BqXfso9tdv-206" edge="1">
          <mxGeometry relative="1" as="geometry">
            <mxPoint x="-210" y="158" as="sourcePoint" />
            <mxPoint x="19.960000000000036" y="158" as="targetPoint" />
          </mxGeometry>
        </mxCell>
        <mxCell id="6SvywFntV4BqXfso9tdv-223" value="Action Request" style="edgeLabel;resizable=0;html=1;;align=center;verticalAlign=middle;" parent="6SvywFntV4BqXfso9tdv-222" connectable="0" vertex="1">
          <mxGeometry relative="1" as="geometry" />
        </mxCell>
        <mxCell id="6SvywFntV4BqXfso9tdv-224" value="" style="endArrow=classic;html=1;rounded=0;fontSize=12;startSize=8;endSize=8;curved=1;exitX=0;exitY=0.75;exitDx=0;exitDy=0;entryX=1;entryY=0.75;entryDx=0;entryDy=0;" parent="6SvywFntV4BqXfso9tdv-206" edge="1">
          <mxGeometry relative="1" as="geometry">
            <mxPoint x="19.960000000000036" y="198" as="sourcePoint" />
            <mxPoint x="-210.03999999999996" y="198" as="targetPoint" />
          </mxGeometry>
        </mxCell>
        <mxCell id="6SvywFntV4BqXfso9tdv-225" value="Action Result" style="edgeLabel;resizable=0;html=1;;align=center;verticalAlign=middle;" parent="6SvywFntV4BqXfso9tdv-224" connectable="0" vertex="1">
          <mxGeometry relative="1" as="geometry" />
        </mxCell>
        <mxCell id="6SvywFntV4BqXfso9tdv-226" value="" style="endArrow=classic;html=1;rounded=0;fontSize=12;startSize=8;endSize=8;curved=1;exitX=0;exitY=0.75;exitDx=0;exitDy=0;entryX=1;entryY=0.75;entryDx=0;entryDy=0;dashed=1;" parent="6SvywFntV4BqXfso9tdv-206" edge="1">
          <mxGeometry relative="1" as="geometry">
            <mxPoint x="19.960000000000036" y="178" as="sourcePoint" />
            <mxPoint x="-210" y="178" as="targetPoint" />
          </mxGeometry>
        </mxCell>
        <mxCell id="6SvywFntV4BqXfso9tdv-227" value="Action Feedback" style="edgeLabel;resizable=0;html=1;;align=center;verticalAlign=middle;" parent="6SvywFntV4BqXfso9tdv-226" connectable="0" vertex="1">
          <mxGeometry relative="1" as="geometry" />
        </mxCell>
        <mxCell id="6SvywFntV4BqXfso9tdv-228" value="" style="swimlane;startSize=0;fillColor=none;strokeColor=#666666;fontColor=#333333;" parent="6SvywFntV4BqXfso9tdv-206" vertex="1">
          <mxGeometry x="200" y="130" width="1819" height="1001" as="geometry" />
        </mxCell>
        <mxCell id="6SvywFntV4BqXfso9tdv-229" value="" style="rounded=0;whiteSpace=wrap;html=1;fillColor=none;strokeColor=light-dark(#e5a50a, #46a8af);" parent="6SvywFntV4BqXfso9tdv-228" vertex="1">
          <mxGeometry x="823" y="11" width="178" height="960" as="geometry" />
        </mxCell>
        <mxCell id="6SvywFntV4BqXfso9tdv-230" value="" style="shape=card;whiteSpace=wrap;html=1;rotation=90;size=25;fillColor=#e1d5e7;strokeColor=#9673a6;" parent="6SvywFntV4BqXfso9tdv-228" vertex="1">
          <mxGeometry x="61.25" y="-61.25" width="47.5" height="170" as="geometry" />
        </mxCell>
        <mxCell id="6SvywFntV4BqXfso9tdv-231" value="&lt;font style=&quot;font-size: 16px;&quot;&gt;loop (quantities)&lt;/font&gt;" style="text;html=1;align=center;verticalAlign=middle;whiteSpace=wrap;rounded=0;" parent="6SvywFntV4BqXfso9tdv-228" vertex="1">
          <mxGeometry x="25" y="8.75" width="120" height="30" as="geometry" />
        </mxCell>
        <mxCell id="6SvywFntV4BqXfso9tdv-232" value="&lt;div&gt;device&amp;nbsp;&lt;/div&gt;&lt;div&gt;== WAIT&lt;/div&gt;" style="rhombus;whiteSpace=wrap;html=1;" parent="6SvywFntV4BqXfso9tdv-228" vertex="1">
          <mxGeometry x="190" y="764" width="100" height="100" as="geometry" />
        </mxCell>
        <mxCell id="6SvywFntV4BqXfso9tdv-233" style="edgeStyle=orthogonalEdgeStyle;rounded=0;orthogonalLoop=1;jettySize=auto;html=1;exitX=1;exitY=0.5;exitDx=0;exitDy=0;entryX=0;entryY=0.5;entryDx=0;entryDy=0;" parent="6SvywFntV4BqXfso9tdv-228" source="6SvywFntV4BqXfso9tdv-236" target="6SvywFntV4BqXfso9tdv-232" edge="1">
          <mxGeometry relative="1" as="geometry" />
        </mxCell>
        <mxCell id="6SvywFntV4BqXfso9tdv-234" value="&lt;div&gt;push &quot;Put&quot;&amp;nbsp;&lt;/div&gt;&lt;div&gt;tasks&amp;nbsp;&lt;span style=&quot;background-color: transparent; color: light-dark(rgb(0, 0, 0), rgb(255, 255, 255));&quot;&gt;in Queue&lt;/span&gt;&lt;/div&gt;" style="rounded=0;whiteSpace=wrap;html=1;align=center;" parent="6SvywFntV4BqXfso9tdv-228" vertex="1">
          <mxGeometry x="-179" y="490" width="120" height="60" as="geometry" />
        </mxCell>
        <mxCell id="6SvywFntV4BqXfso9tdv-235" style="edgeStyle=orthogonalEdgeStyle;rounded=0;orthogonalLoop=1;jettySize=auto;html=1;exitX=1;exitY=0.5;exitDx=0;exitDy=0;entryX=0;entryY=0.5;entryDx=0;entryDy=0;" parent="6SvywFntV4BqXfso9tdv-228" source="6SvywFntV4BqXfso9tdv-234" target="6SvywFntV4BqXfso9tdv-236" edge="1">
          <mxGeometry relative="1" as="geometry" />
        </mxCell>
        <mxCell id="6SvywFntV4BqXfso9tdv-236" value="traverse&lt;div&gt;Task Queue&lt;/div&gt;" style="rounded=0;whiteSpace=wrap;html=1;align=center;" parent="6SvywFntV4BqXfso9tdv-228" vertex="1">
          <mxGeometry x="13" y="490" width="120" height="60" as="geometry" />
        </mxCell>
        <mxCell id="6SvywFntV4BqXfso9tdv-237" style="edgeStyle=orthogonalEdgeStyle;rounded=0;orthogonalLoop=1;jettySize=auto;html=1;exitX=1;exitY=0.5;exitDx=0;exitDy=0;entryX=0;entryY=0.5;entryDx=0;entryDy=0;" parent="6SvywFntV4BqXfso9tdv-228" source="6SvywFntV4BqXfso9tdv-238" target="6SvywFntV4BqXfso9tdv-245" edge="1">
          <mxGeometry relative="1" as="geometry" />
        </mxCell>
        <mxCell id="6SvywFntV4BqXfso9tdv-238" value="&lt;div style=&quot;&quot;&gt;set&amp;nbsp;&lt;/div&gt;&lt;div style=&quot;&quot;&gt;cooking timer&lt;/div&gt;" style="rounded=0;whiteSpace=wrap;html=1;align=center;" parent="6SvywFntV4BqXfso9tdv-228" vertex="1">
          <mxGeometry x="1056" y="321" width="120" height="60" as="geometry" />
        </mxCell>
        <mxCell id="6SvywFntV4BqXfso9tdv-239" style="edgeStyle=orthogonalEdgeStyle;rounded=0;orthogonalLoop=1;jettySize=auto;html=1;entryX=0.5;entryY=0;entryDx=0;entryDy=0;exitX=0.5;exitY=1;exitDx=0;exitDy=0;" parent="6SvywFntV4BqXfso9tdv-228" source="6SvywFntV4BqXfso9tdv-240" target="6SvywFntV4BqXfso9tdv-265" edge="1">
          <mxGeometry relative="1" as="geometry" />
        </mxCell>
        <mxCell id="6SvywFntV4BqXfso9tdv-240" value="&lt;div&gt;push &quot;TAKE&quot;&lt;/div&gt;&lt;div&gt;tasks&amp;nbsp;&lt;span style=&quot;background-color: transparent; color: light-dark(rgb(0, 0, 0), rgb(255, 255, 255));&quot;&gt;in Queue&lt;/span&gt;&lt;/div&gt;" style="rounded=0;whiteSpace=wrap;html=1;align=center;" parent="6SvywFntV4BqXfso9tdv-228" vertex="1">
          <mxGeometry x="1526" y="321" width="120" height="60" as="geometry" />
        </mxCell>
        <mxCell id="6SvywFntV4BqXfso9tdv-241" value="" style="edgeStyle=orthogonalEdgeStyle;rounded=0;orthogonalLoop=1;jettySize=auto;html=1;entryX=0;entryY=0.5;entryDx=0;entryDy=0;exitX=1;exitY=0.5;exitDx=0;exitDy=0;" parent="6SvywFntV4BqXfso9tdv-228" source="6SvywFntV4BqXfso9tdv-242" target="6SvywFntV4BqXfso9tdv-240" edge="1">
          <mxGeometry relative="1" as="geometry">
            <mxPoint x="1497" y="351" as="sourcePoint" />
            <mxPoint x="1537" y="351" as="targetPoint" />
          </mxGeometry>
        </mxCell>
        <mxCell id="6SvywFntV4BqXfso9tdv-242" value="&lt;div style=&quot;&quot;&gt;change&amp;nbsp;&lt;/div&gt;&lt;div style=&quot;&quot;&gt;device state&lt;/div&gt;&lt;div style=&quot;&quot;&gt;(&lt;span style=&quot;background-color: transparent; color: light-dark(rgb(0, 0, 0), rgb(255, 255, 255));&quot;&gt;WAIT&lt;/span&gt;&lt;span style=&quot;background-color: transparent; color: light-dark(rgb(0, 0, 0), rgb(255, 255, 255));&quot;&gt;)&lt;/span&gt;&lt;/div&gt;" style="rounded=0;whiteSpace=wrap;html=1;align=center;fillColor=light-dark(#fff2cc, #103c3f);strokeColor=light-dark(#e5a50a, #46a8af);fillStyle=solid;" parent="6SvywFntV4BqXfso9tdv-228" vertex="1">
          <mxGeometry x="1380" y="321" width="120" height="60" as="geometry" />
        </mxCell>
        <mxCell id="6SvywFntV4BqXfso9tdv-243" style="edgeStyle=orthogonalEdgeStyle;rounded=0;orthogonalLoop=1;jettySize=auto;html=1;exitX=1;exitY=0.5;exitDx=0;exitDy=0;entryX=0;entryY=0.5;entryDx=0;entryDy=0;" parent="6SvywFntV4BqXfso9tdv-228" source="6SvywFntV4BqXfso9tdv-245" target="6SvywFntV4BqXfso9tdv-242" edge="1">
          <mxGeometry relative="1" as="geometry" />
        </mxCell>
        <mxCell id="6SvywFntV4BqXfso9tdv-244" value="&lt;div align=&quot;center&quot;&gt;call&lt;/div&gt;&lt;div align=&quot;center&quot;&gt;Device&lt;/div&gt;&lt;div align=&quot;center&quot;&gt;Manager&lt;/div&gt;" style="edgeLabel;html=1;align=center;verticalAlign=middle;resizable=0;points=[];" parent="6SvywFntV4BqXfso9tdv-243" vertex="1" connectable="0">
          <mxGeometry x="-0.2244" y="-3" relative="1" as="geometry">
            <mxPoint as="offset" />
          </mxGeometry>
        </mxCell>
        <mxCell id="6SvywFntV4BqXfso9tdv-245" value="end time&lt;div&gt;&amp;lt;= now&lt;/div&gt;" style="rhombus;whiteSpace=wrap;html=1;" parent="6SvywFntV4BqXfso9tdv-228" vertex="1">
          <mxGeometry x="1196" y="301" width="100" height="100" as="geometry" />
        </mxCell>
        <mxCell id="6SvywFntV4BqXfso9tdv-246" value="&lt;b&gt;Put&amp;nbsp;&lt;/b&gt;&lt;b style=&quot;background-color: transparent; color: light-dark(rgb(0, 0, 0), rgb(255, 255, 255));&quot;&gt;(tri-) Gimbap&lt;/b&gt;" style="swimlane;fontStyle=0;childLayout=stackLayout;horizontal=1;startSize=30;horizontalStack=0;resizeParent=1;resizeParentMax=0;resizeLast=0;collapsible=1;marginBottom=0;whiteSpace=wrap;html=1;fillColor=#dae8fc;strokeColor=#6c8ebf;" parent="6SvywFntV4BqXfso9tdv-228" vertex="1">
          <mxGeometry x="842" y="27" width="140" height="240" as="geometry" />
        </mxCell>
        <mxCell id="6SvywFntV4BqXfso9tdv-247" value="Open microwave" style="text;strokeColor=#6c8ebf;fillColor=#dae8fc;align=left;verticalAlign=middle;spacingLeft=4;spacingRight=4;overflow=hidden;points=[[0,0.5],[1,0.5]];portConstraint=eastwest;rotatable=0;whiteSpace=wrap;html=1;" parent="6SvywFntV4BqXfso9tdv-246" vertex="1">
          <mxGeometry y="30" width="140" height="30" as="geometry" />
        </mxCell>
        <mxCell id="6SvywFntV4BqXfso9tdv-248" value="&lt;span style=&quot;text-align: center;&quot;&gt;Move to stock&lt;/span&gt;" style="text;strokeColor=#6c8ebf;fillColor=#dae8fc;align=left;verticalAlign=middle;spacingLeft=4;spacingRight=4;overflow=hidden;points=[[0,0.5],[1,0.5]];portConstraint=eastwest;rotatable=0;whiteSpace=wrap;html=1;" parent="6SvywFntV4BqXfso9tdv-246" vertex="1">
          <mxGeometry y="60" width="140" height="30" as="geometry" />
        </mxCell>
        <mxCell id="6SvywFntV4BqXfso9tdv-249" value="&lt;span style=&quot;text-align: center;&quot;&gt;Pick up food&lt;/span&gt;" style="text;strokeColor=#6c8ebf;fillColor=#dae8fc;align=left;verticalAlign=middle;spacingLeft=4;spacingRight=4;overflow=hidden;points=[[0,0.5],[1,0.5]];portConstraint=eastwest;rotatable=0;whiteSpace=wrap;html=1;" parent="6SvywFntV4BqXfso9tdv-246" vertex="1">
          <mxGeometry y="90" width="140" height="30" as="geometry" />
        </mxCell>
        <mxCell id="6SvywFntV4BqXfso9tdv-250" value="&lt;div style=&quot;text-align: center;&quot;&gt;&lt;span style=&quot;background-color: transparent; color: light-dark(rgb(0, 0, 0), rgb(255, 255, 255));&quot;&gt;Move to microwave&lt;/span&gt;&lt;/div&gt;" style="text;strokeColor=#6c8ebf;fillColor=#dae8fc;align=left;verticalAlign=middle;spacingLeft=4;spacingRight=4;overflow=hidden;points=[[0,0.5],[1,0.5]];portConstraint=eastwest;rotatable=0;whiteSpace=wrap;html=1;" parent="6SvywFntV4BqXfso9tdv-246" vertex="1">
          <mxGeometry y="120" width="140" height="30" as="geometry" />
        </mxCell>
        <mxCell id="6SvywFntV4BqXfso9tdv-251" value="&lt;span style=&quot;text-align: center;&quot;&gt;Place food&lt;/span&gt;" style="text;strokeColor=#6c8ebf;fillColor=#dae8fc;align=left;verticalAlign=middle;spacingLeft=4;spacingRight=4;overflow=hidden;points=[[0,0.5],[1,0.5]];portConstraint=eastwest;rotatable=0;whiteSpace=wrap;html=1;" parent="6SvywFntV4BqXfso9tdv-246" vertex="1">
          <mxGeometry y="150" width="140" height="30" as="geometry" />
        </mxCell>
        <mxCell id="6SvywFntV4BqXfso9tdv-252" value="&lt;span style=&quot;text-align: center;&quot;&gt;Close microwave&lt;/span&gt;" style="text;strokeColor=#6c8ebf;fillColor=#dae8fc;align=left;verticalAlign=middle;spacingLeft=4;spacingRight=4;overflow=hidden;points=[[0,0.5],[1,0.5]];portConstraint=eastwest;rotatable=0;whiteSpace=wrap;html=1;" parent="6SvywFntV4BqXfso9tdv-246" vertex="1">
          <mxGeometry y="180" width="140" height="30" as="geometry" />
        </mxCell>
        <mxCell id="6SvywFntV4BqXfso9tdv-253" value="&lt;span style=&quot;text-align: center;&quot;&gt;Press button&lt;/span&gt;" style="text;strokeColor=#6c8ebf;fillColor=#dae8fc;align=left;verticalAlign=middle;spacingLeft=4;spacingRight=4;overflow=hidden;points=[[0,0.5],[1,0.5]];portConstraint=eastwest;rotatable=0;whiteSpace=wrap;html=1;" parent="6SvywFntV4BqXfso9tdv-246" vertex="1">
          <mxGeometry y="210" width="140" height="30" as="geometry" />
        </mxCell>
        <mxCell id="6SvywFntV4BqXfso9tdv-254" value="&lt;b&gt;Put Ramen&lt;/b&gt;" style="swimlane;fontStyle=0;childLayout=stackLayout;horizontal=1;startSize=30;horizontalStack=0;resizeParent=1;resizeParentMax=0;resizeLast=0;collapsible=1;marginBottom=0;whiteSpace=wrap;html=1;fillColor=#ffe6cc;strokeColor=#d79b00;" parent="6SvywFntV4BqXfso9tdv-228" vertex="1">
          <mxGeometry x="842" y="307" width="140" height="240" as="geometry" />
        </mxCell>
        <mxCell id="6SvywFntV4BqXfso9tdv-255" value="&lt;span style=&quot;text-align: center;&quot;&gt;Move to stock&lt;/span&gt;" style="text;strokeColor=#d79b00;fillColor=#ffe6cc;align=left;verticalAlign=middle;spacingLeft=4;spacingRight=4;overflow=hidden;points=[[0,0.5],[1,0.5]];portConstraint=eastwest;rotatable=0;whiteSpace=wrap;html=1;" parent="6SvywFntV4BqXfso9tdv-254" vertex="1">
          <mxGeometry y="30" width="140" height="30" as="geometry" />
        </mxCell>
        <mxCell id="6SvywFntV4BqXfso9tdv-256" value="&lt;span style=&quot;text-align: center;&quot;&gt;Pick up food&lt;/span&gt;" style="text;strokeColor=#d79b00;fillColor=#ffe6cc;align=left;verticalAlign=middle;spacingLeft=4;spacingRight=4;overflow=hidden;points=[[0,0.5],[1,0.5]];portConstraint=eastwest;rotatable=0;whiteSpace=wrap;html=1;" parent="6SvywFntV4BqXfso9tdv-254" vertex="1">
          <mxGeometry y="60" width="140" height="30" as="geometry" />
        </mxCell>
        <mxCell id="6SvywFntV4BqXfso9tdv-257" value="&lt;div style=&quot;text-align: center;&quot;&gt;&lt;span style=&quot;background-color: transparent; color: light-dark(rgb(0, 0, 0), rgb(255, 255, 255));&quot;&gt;Move to cooker&lt;/span&gt;&lt;/div&gt;" style="text;strokeColor=#d79b00;fillColor=#ffe6cc;align=left;verticalAlign=middle;spacingLeft=4;spacingRight=4;overflow=hidden;points=[[0,0.5],[1,0.5]];portConstraint=eastwest;rotatable=0;whiteSpace=wrap;html=1;" parent="6SvywFntV4BqXfso9tdv-254" vertex="1">
          <mxGeometry y="90" width="140" height="30" as="geometry" />
        </mxCell>
        <mxCell id="6SvywFntV4BqXfso9tdv-258" value="&lt;span style=&quot;text-align: center;&quot;&gt;Place food&lt;/span&gt;" style="text;strokeColor=#d79b00;fillColor=#ffe6cc;align=left;verticalAlign=middle;spacingLeft=4;spacingRight=4;overflow=hidden;points=[[0,0.5],[1,0.5]];portConstraint=eastwest;rotatable=0;whiteSpace=wrap;html=1;" parent="6SvywFntV4BqXfso9tdv-254" vertex="1">
          <mxGeometry y="120" width="140" height="30" as="geometry" />
        </mxCell>
        <mxCell id="6SvywFntV4BqXfso9tdv-259" value="&lt;span style=&quot;text-align: center;&quot;&gt;Pick up soup&lt;/span&gt;" style="text;strokeColor=#d79b00;fillColor=#ffe6cc;align=left;verticalAlign=middle;spacingLeft=4;spacingRight=4;overflow=hidden;points=[[0,0.5],[1,0.5]];portConstraint=eastwest;rotatable=0;whiteSpace=wrap;html=1;" parent="6SvywFntV4BqXfso9tdv-254" vertex="1">
          <mxGeometry y="150" width="140" height="30" as="geometry" />
        </mxCell>
        <mxCell id="6SvywFntV4BqXfso9tdv-260" value="&lt;span style=&quot;text-align: center;&quot;&gt;Put soup&lt;/span&gt;" style="text;strokeColor=#d79b00;fillColor=#ffe6cc;align=left;verticalAlign=middle;spacingLeft=4;spacingRight=4;overflow=hidden;points=[[0,0.5],[1,0.5]];portConstraint=eastwest;rotatable=0;whiteSpace=wrap;html=1;" parent="6SvywFntV4BqXfso9tdv-254" vertex="1">
          <mxGeometry y="180" width="140" height="30" as="geometry" />
        </mxCell>
        <mxCell id="6SvywFntV4BqXfso9tdv-261" value="&lt;span style=&quot;text-align: center;&quot;&gt;Press button&lt;/span&gt;" style="text;strokeColor=#d79b00;fillColor=#ffe6cc;align=left;verticalAlign=middle;spacingLeft=4;spacingRight=4;overflow=hidden;points=[[0,0.5],[1,0.5]];portConstraint=eastwest;rotatable=0;whiteSpace=wrap;html=1;" parent="6SvywFntV4BqXfso9tdv-254" vertex="1">
          <mxGeometry y="210" width="140" height="30" as="geometry" />
        </mxCell>
        <mxCell id="6SvywFntV4BqXfso9tdv-262" style="edgeStyle=orthogonalEdgeStyle;rounded=0;orthogonalLoop=1;jettySize=auto;html=1;exitX=1;exitY=0.5;exitDx=0;exitDy=0;entryX=-0.006;entryY=0.261;entryDx=0;entryDy=0;entryPerimeter=0;" parent="6SvywFntV4BqXfso9tdv-228" source="6SvywFntV4BqXfso9tdv-269" target="6SvywFntV4BqXfso9tdv-258" edge="1">
          <mxGeometry relative="1" as="geometry">
            <mxPoint x="797" y="275" as="sourcePoint" />
            <mxPoint x="842" y="371.1400000000003" as="targetPoint" />
            <Array as="points">
              <mxPoint x="809" y="518" />
              <mxPoint x="809" y="435" />
            </Array>
          </mxGeometry>
        </mxCell>
        <mxCell id="6SvywFntV4BqXfso9tdv-263" value="" style="edgeStyle=orthogonalEdgeStyle;rounded=0;orthogonalLoop=1;jettySize=auto;html=1;exitX=1;exitY=0.5;exitDx=0;exitDy=0;" parent="6SvywFntV4BqXfso9tdv-228" source="6SvywFntV4BqXfso9tdv-264" target="6SvywFntV4BqXfso9tdv-265" edge="1">
          <mxGeometry relative="1" as="geometry">
            <mxPoint x="1379" y="820" as="sourcePoint" />
            <mxPoint x="1449" y="820" as="targetPoint" />
          </mxGeometry>
        </mxCell>
        <mxCell id="6SvywFntV4BqXfso9tdv-264" value="&lt;div style=&quot;&quot;&gt;change&amp;nbsp;&lt;/div&gt;&lt;div style=&quot;&quot;&gt;device state&lt;/div&gt;&lt;div style=&quot;&quot;&gt;(IDLE&lt;span style=&quot;background-color: transparent; color: light-dark(rgb(0, 0, 0), rgb(255, 255, 255));&quot;&gt;)&lt;/span&gt;&lt;/div&gt;" style="rounded=0;whiteSpace=wrap;html=1;align=center;fillColor=light-dark(#fff2cc, #103c3f);strokeColor=light-dark(#e5a50a, #46a8af);fillStyle=solid;" parent="6SvywFntV4BqXfso9tdv-228" vertex="1">
          <mxGeometry x="1380" y="790" width="120" height="60" as="geometry" />
        </mxCell>
        <mxCell id="6SvywFntV4BqXfso9tdv-265" value="&lt;span style=&quot;text-align: left;&quot;&gt;init pose&lt;/span&gt;" style="rounded=0;whiteSpace=wrap;html=1;" parent="6SvywFntV4BqXfso9tdv-228" vertex="1">
          <mxGeometry x="1526" y="790" width="120" height="60" as="geometry" />
        </mxCell>
        <mxCell id="6SvywFntV4BqXfso9tdv-266" value="&lt;div style=&quot;&quot;&gt;change&amp;nbsp;&lt;/div&gt;&lt;div style=&quot;&quot;&gt;robot state&lt;/div&gt;&lt;div style=&quot;&quot;&gt;(&lt;span style=&quot;background-color: transparent; color: light-dark(rgb(0, 0, 0), rgb(255, 255, 255));&quot;&gt;IDLE&lt;/span&gt;&lt;span style=&quot;background-color: transparent; color: light-dark(rgb(0, 0, 0), rgb(255, 255, 255));&quot;&gt;)&lt;/span&gt;&lt;/div&gt;" style="rounded=0;whiteSpace=wrap;html=1;align=center;fillColor=light-dark(#fff2cc, #103c3f);strokeColor=light-dark(#e5a50a, #46a8af);fillStyle=solid;" parent="6SvywFntV4BqXfso9tdv-228" vertex="1">
          <mxGeometry x="1671" y="790" width="120" height="60" as="geometry" />
        </mxCell>
        <mxCell id="6SvywFntV4BqXfso9tdv-267" value="" style="edgeStyle=orthogonalEdgeStyle;rounded=0;orthogonalLoop=1;jettySize=auto;html=1;exitX=1;exitY=0.5;exitDx=0;exitDy=0;entryX=0;entryY=0.5;entryDx=0;entryDy=0;" parent="6SvywFntV4BqXfso9tdv-228" source="6SvywFntV4BqXfso9tdv-265" target="6SvywFntV4BqXfso9tdv-266" edge="1">
          <mxGeometry relative="1" as="geometry">
            <mxPoint x="1588" y="826" as="sourcePoint" />
            <mxPoint x="1626" y="826" as="targetPoint" />
          </mxGeometry>
        </mxCell>
        <mxCell id="6SvywFntV4BqXfso9tdv-268" style="edgeStyle=orthogonalEdgeStyle;rounded=0;orthogonalLoop=1;jettySize=auto;html=1;exitX=1;exitY=0.5;exitDx=0;exitDy=0;entryX=0;entryY=0.5;entryDx=0;entryDy=0;" parent="6SvywFntV4BqXfso9tdv-228" source="6SvywFntV4BqXfso9tdv-269" target="6SvywFntV4BqXfso9tdv-249" edge="1">
          <mxGeometry relative="1" as="geometry">
            <Array as="points">
              <mxPoint x="809" y="518" />
              <mxPoint x="809" y="132" />
            </Array>
          </mxGeometry>
        </mxCell>
        <mxCell id="6SvywFntV4BqXfso9tdv-269" value="&lt;div style=&quot;&quot;&gt;change&amp;nbsp;&lt;/div&gt;&lt;div style=&quot;&quot;&gt;robot state&lt;/div&gt;&lt;div style=&quot;&quot;&gt;(&lt;span style=&quot;background-color: transparent; color: light-dark(rgb(0, 0, 0), rgb(255, 255, 255));&quot;&gt;BUSY&lt;/span&gt;&lt;span style=&quot;background-color: transparent; color: light-dark(rgb(0, 0, 0), rgb(255, 255, 255));&quot;&gt;)&lt;/span&gt;&lt;/div&gt;" style="rounded=0;whiteSpace=wrap;html=1;align=center;fillColor=light-dark(#fff2cc, #103c3f);strokeColor=light-dark(#e5a50a, #46a8af);fillStyle=solid;" parent="6SvywFntV4BqXfso9tdv-228" vertex="1">
          <mxGeometry x="677" y="488" width="115" height="60" as="geometry" />
        </mxCell>
        <mxCell id="6SvywFntV4BqXfso9tdv-270" style="edgeStyle=orthogonalEdgeStyle;rounded=0;orthogonalLoop=1;jettySize=auto;html=1;" parent="6SvywFntV4BqXfso9tdv-206" source="6SvywFntV4BqXfso9tdv-271" target="6SvywFntV4BqXfso9tdv-234" edge="1">
          <mxGeometry relative="1" as="geometry" />
        </mxCell>
        <mxCell id="6SvywFntV4BqXfso9tdv-271" value="stock&amp;nbsp;&lt;div&gt;&amp;gt; quantities&lt;/div&gt;" style="rhombus;whiteSpace=wrap;html=1;" parent="6SvywFntV4BqXfso9tdv-206" vertex="1">
          <mxGeometry x="31" y="308" width="100" height="100" as="geometry" />
        </mxCell>
        <mxCell id="6SvywFntV4BqXfso9tdv-272" value="&lt;b&gt;Task&lt;/b&gt;&lt;div&gt;(name, device, type,&lt;/div&gt;&lt;div&gt;wait_time, position, id)&lt;/div&gt;" style="edgeLabel;resizable=0;html=1;;align=center;verticalAlign=middle;" parent="6SvywFntV4BqXfso9tdv-206" connectable="0" vertex="1">
          <mxGeometry x="81" y="442" as="geometry">
            <mxPoint x="1" y="53" as="offset" />
          </mxGeometry>
        </mxCell>
        <mxCell id="6SvywFntV4BqXfso9tdv-273" style="edgeStyle=orthogonalEdgeStyle;rounded=0;orthogonalLoop=1;jettySize=auto;html=1;entryX=0;entryY=0.5;entryDx=0;entryDy=0;" parent="6SvywFntV4BqXfso9tdv-206" target="6SvywFntV4BqXfso9tdv-238" edge="1">
          <mxGeometry relative="1" as="geometry">
            <mxPoint x="1182" y="285" as="sourcePoint" />
          </mxGeometry>
        </mxCell>
        <mxCell id="6SvywFntV4BqXfso9tdv-274" value="Motion Controller" style="rounded=0;whiteSpace=wrap;html=1;fillColor=#FFF8D9;strokeColor=light-dark(#e5a50a, #46a8af);" parent="6SvywFntV4BqXfso9tdv-206" vertex="1">
          <mxGeometry x="1052" y="49" width="120" height="60" as="geometry" />
        </mxCell>
        <mxCell id="6SvywFntV4BqXfso9tdv-275" style="edgeStyle=orthogonalEdgeStyle;rounded=0;orthogonalLoop=1;jettySize=auto;html=1;" parent="6SvywFntV4BqXfso9tdv-206" source="6SvywFntV4BqXfso9tdv-276" target="6SvywFntV4BqXfso9tdv-274" edge="1">
          <mxGeometry relative="1" as="geometry" />
        </mxCell>
        <mxCell id="6SvywFntV4BqXfso9tdv-276" value="&lt;div&gt;Trajectory&lt;/div&gt;&lt;div&gt;Pose Data&lt;/div&gt;" style="shape=cylinder3;whiteSpace=wrap;html=1;boundedLbl=1;backgroundOutline=1;size=15;fillColor=#FFF8D9;strokeColor=light-dark(#e5a50a, #46a8af);" parent="6SvywFntV4BqXfso9tdv-206" vertex="1">
          <mxGeometry x="920" y="39" width="90" height="80" as="geometry" />
        </mxCell>
        <mxCell id="6SvywFntV4BqXfso9tdv-277" style="edgeStyle=orthogonalEdgeStyle;rounded=0;orthogonalLoop=1;jettySize=auto;html=1;exitX=1;exitY=0.5;exitDx=0;exitDy=0;entryX=0;entryY=0.5;entryDx=0;entryDy=0;" parent="6SvywFntV4BqXfso9tdv-206" target="6SvywFntV4BqXfso9tdv-238" edge="1">
          <mxGeometry relative="1" as="geometry">
            <mxPoint x="1282" y="410" as="targetPoint" />
            <mxPoint x="1182" y="565" as="sourcePoint" />
          </mxGeometry>
        </mxCell>
        <mxCell id="6SvywFntV4BqXfso9tdv-278" style="edgeStyle=orthogonalEdgeStyle;rounded=0;orthogonalLoop=1;jettySize=auto;html=1;exitX=0.5;exitY=0;exitDx=0;exitDy=0;entryX=0.5;entryY=1;entryDx=0;entryDy=0;" parent="6SvywFntV4BqXfso9tdv-206" source="6SvywFntV4BqXfso9tdv-229" target="6SvywFntV4BqXfso9tdv-274" edge="1">
          <mxGeometry relative="1" as="geometry" />
        </mxCell>
        <mxCell id="6SvywFntV4BqXfso9tdv-279" style="edgeStyle=orthogonalEdgeStyle;rounded=0;orthogonalLoop=1;jettySize=auto;html=1;entryX=0;entryY=0.5;entryDx=0;entryDy=0;" parent="6SvywFntV4BqXfso9tdv-206" source="6SvywFntV4BqXfso9tdv-216" target="6SvywFntV4BqXfso9tdv-269" edge="1">
          <mxGeometry relative="1" as="geometry">
            <mxPoint x="877" y="405" as="targetPoint" />
            <Array as="points">
              <mxPoint x="849" y="315" />
              <mxPoint x="849" y="648" />
            </Array>
          </mxGeometry>
        </mxCell>
        <mxCell id="6SvywFntV4BqXfso9tdv-280" style="edgeStyle=orthogonalEdgeStyle;rounded=0;orthogonalLoop=1;jettySize=auto;html=1;entryX=0;entryY=0.5;entryDx=0;entryDy=0;" parent="6SvywFntV4BqXfso9tdv-206" source="6SvywFntV4BqXfso9tdv-214" target="6SvywFntV4BqXfso9tdv-269" edge="1">
          <mxGeometry relative="1" as="geometry">
            <Array as="points">
              <mxPoint x="849" y="500" />
              <mxPoint x="849" y="648" />
            </Array>
          </mxGeometry>
        </mxCell>
        <mxCell id="6SvywFntV4BqXfso9tdv-281" style="edgeStyle=orthogonalEdgeStyle;rounded=0;orthogonalLoop=1;jettySize=auto;html=1;entryX=0;entryY=0.5;entryDx=0;entryDy=0;dashed=1;" parent="6SvywFntV4BqXfso9tdv-1" source="6SvywFntV4BqXfso9tdv-282" target="6SvywFntV4BqXfso9tdv-271" edge="1">
          <mxGeometry relative="1" as="geometry" />
        </mxCell>
        <mxCell id="6SvywFntV4BqXfso9tdv-282" value="Inventory" style="rounded=0;whiteSpace=wrap;html=1;fillColor=light-dark(#fff2cc, #103c3f);strokeColor=light-dark(#e5a50a, #46a8af);fillStyle=solid;" parent="6SvywFntV4BqXfso9tdv-1" vertex="1">
          <mxGeometry x="-2932" y="2975" width="120" height="60" as="geometry" />
        </mxCell>
        <mxCell id="6SvywFntV4BqXfso9tdv-283" value="Kiosk" style="swimlane;whiteSpace=wrap;html=1;" parent="6SvywFntV4BqXfso9tdv-1" vertex="1">
          <mxGeometry x="-3146" y="2755" width="160" height="280" as="geometry" />
        </mxCell>
        <mxCell id="6SvywFntV4BqXfso9tdv-284" value="Order GUI" style="rounded=0;whiteSpace=wrap;html=1;" parent="6SvywFntV4BqXfso9tdv-283" vertex="1">
          <mxGeometry x="20" y="40" width="120" height="60" as="geometry" />
        </mxCell>
        <mxCell id="6SvywFntV4BqXfso9tdv-285" value="Check Stock" style="rounded=0;whiteSpace=wrap;html=1;" parent="6SvywFntV4BqXfso9tdv-283" vertex="1">
          <mxGeometry x="20" y="190" width="120" height="60" as="geometry" />
        </mxCell>
        <mxCell id="6SvywFntV4BqXfso9tdv-286" value="" style="endArrow=classic;html=1;rounded=0;fontSize=12;startSize=8;endSize=8;curved=1;exitX=0.75;exitY=1;exitDx=0;exitDy=0;entryX=0.75;entryY=0;entryDx=0;entryDy=0;" parent="6SvywFntV4BqXfso9tdv-283" source="6SvywFntV4BqXfso9tdv-284" target="6SvywFntV4BqXfso9tdv-285" edge="1">
          <mxGeometry relative="1" as="geometry">
            <mxPoint x="150" y="250" as="sourcePoint" />
            <mxPoint x="250" y="250" as="targetPoint" />
          </mxGeometry>
        </mxCell>
        <mxCell id="6SvywFntV4BqXfso9tdv-287" value="order list" style="edgeLabel;resizable=0;html=1;;align=center;verticalAlign=middle;" parent="6SvywFntV4BqXfso9tdv-286" connectable="0" vertex="1">
          <mxGeometry relative="1" as="geometry" />
        </mxCell>
        <mxCell id="6SvywFntV4BqXfso9tdv-288" value="" style="endArrow=classic;html=1;rounded=0;fontSize=12;startSize=8;endSize=8;curved=1;exitX=0.25;exitY=0;exitDx=0;exitDy=0;entryX=0.25;entryY=1;entryDx=0;entryDy=0;" parent="6SvywFntV4BqXfso9tdv-283" source="6SvywFntV4BqXfso9tdv-285" target="6SvywFntV4BqXfso9tdv-284" edge="1">
          <mxGeometry relative="1" as="geometry">
            <mxPoint x="120" y="110" as="sourcePoint" />
            <mxPoint x="120" y="200" as="targetPoint" />
          </mxGeometry>
        </mxCell>
        <mxCell id="6SvywFntV4BqXfso9tdv-289" value="stock list" style="edgeLabel;resizable=0;html=1;;align=center;verticalAlign=middle;" parent="6SvywFntV4BqXfso9tdv-288" connectable="0" vertex="1">
          <mxGeometry relative="1" as="geometry" />
        </mxCell>
        <mxCell id="6SvywFntV4BqXfso9tdv-290" value="&lt;b&gt;Take&amp;nbsp;&lt;/b&gt;&lt;b style=&quot;background-color: transparent; color: light-dark(rgb(0, 0, 0), rgb(255, 255, 255));&quot;&gt;(tri-) Gimbap&lt;/b&gt;" style="swimlane;fontStyle=0;childLayout=stackLayout;horizontal=1;startSize=30;horizontalStack=0;resizeParent=1;resizeParentMax=0;resizeLast=0;collapsible=1;marginBottom=0;whiteSpace=wrap;html=1;fillColor=#dae8fc;strokeColor=#6c8ebf;" parent="6SvywFntV4BqXfso9tdv-1" vertex="1">
          <mxGeometry x="-1733" y="3391" width="140" height="180" as="geometry" />
        </mxCell>
        <mxCell id="6SvywFntV4BqXfso9tdv-291" value="Open microwave" style="text;strokeColor=#6c8ebf;fillColor=#dae8fc;align=left;verticalAlign=middle;spacingLeft=4;spacingRight=4;overflow=hidden;points=[[0,0.5],[1,0.5]];portConstraint=eastwest;rotatable=0;whiteSpace=wrap;html=1;" parent="6SvywFntV4BqXfso9tdv-290" vertex="1">
          <mxGeometry y="30" width="140" height="30" as="geometry" />
        </mxCell>
        <mxCell id="6SvywFntV4BqXfso9tdv-292" value="&lt;span style=&quot;text-align: center;&quot;&gt;Pick up&amp;nbsp;&lt;/span&gt;&lt;span style=&quot;text-align: center;&quot;&gt;gimbap&lt;/span&gt;" style="text;strokeColor=#6c8ebf;fillColor=#dae8fc;align=left;verticalAlign=middle;spacingLeft=4;spacingRight=4;overflow=hidden;points=[[0,0.5],[1,0.5]];portConstraint=eastwest;rotatable=0;whiteSpace=wrap;html=1;" parent="6SvywFntV4BqXfso9tdv-290" vertex="1">
          <mxGeometry y="60" width="140" height="30" as="geometry" />
        </mxCell>
        <mxCell id="6SvywFntV4BqXfso9tdv-293" value="&lt;span style=&quot;text-align: center;&quot;&gt;Serve&amp;nbsp;&lt;/span&gt;&lt;span style=&quot;text-align: center;&quot;&gt;gimbap&lt;/span&gt;" style="text;strokeColor=#6c8ebf;fillColor=#dae8fc;align=left;verticalAlign=middle;spacingLeft=4;spacingRight=4;overflow=hidden;points=[[0,0.5],[1,0.5]];portConstraint=eastwest;rotatable=0;whiteSpace=wrap;html=1;" parent="6SvywFntV4BqXfso9tdv-290" vertex="1">
          <mxGeometry y="90" width="140" height="30" as="geometry" />
        </mxCell>
        <mxCell id="6SvywFntV4BqXfso9tdv-294" value="&lt;div style=&quot;text-align: center;&quot;&gt;Detecting force&lt;/div&gt;" style="text;strokeColor=#6c8ebf;fillColor=#dae8fc;align=left;verticalAlign=middle;spacingLeft=4;spacingRight=4;overflow=hidden;points=[[0,0.5],[1,0.5]];portConstraint=eastwest;rotatable=0;whiteSpace=wrap;html=1;" parent="6SvywFntV4BqXfso9tdv-290" vertex="1">
          <mxGeometry y="120" width="140" height="30" as="geometry" />
        </mxCell>
        <mxCell id="6SvywFntV4BqXfso9tdv-295" value="&lt;span style=&quot;text-align: center;&quot;&gt;Close microwave&lt;/span&gt;" style="text;strokeColor=#6c8ebf;fillColor=#dae8fc;align=left;verticalAlign=middle;spacingLeft=4;spacingRight=4;overflow=hidden;points=[[0,0.5],[1,0.5]];portConstraint=eastwest;rotatable=0;whiteSpace=wrap;html=1;" parent="6SvywFntV4BqXfso9tdv-290" vertex="1">
          <mxGeometry y="150" width="140" height="30" as="geometry" />
        </mxCell>
        <mxCell id="6SvywFntV4BqXfso9tdv-296" value="&lt;b&gt;Take Ramen&lt;/b&gt;" style="swimlane;fontStyle=0;childLayout=stackLayout;horizontal=1;startSize=30;horizontalStack=0;resizeParent=1;resizeParentMax=0;resizeLast=0;collapsible=1;marginBottom=0;whiteSpace=wrap;html=1;fillColor=#ffe6cc;strokeColor=#d79b00;" parent="6SvywFntV4BqXfso9tdv-1" vertex="1">
          <mxGeometry x="-1733" y="3611" width="140" height="120" as="geometry">
            <mxRectangle x="250" y="330" width="120" height="30" as="alternateBounds" />
          </mxGeometry>
        </mxCell>
        <mxCell id="6SvywFntV4BqXfso9tdv-297" value="&lt;span style=&quot;text-align: center;&quot;&gt;Pick up bowl&lt;/span&gt;" style="text;strokeColor=#d79b00;fillColor=#ffe6cc;align=left;verticalAlign=middle;spacingLeft=4;spacingRight=4;overflow=hidden;points=[[0,0.5],[1,0.5]];portConstraint=eastwest;rotatable=0;whiteSpace=wrap;html=1;" parent="6SvywFntV4BqXfso9tdv-296" vertex="1">
          <mxGeometry y="30" width="140" height="30" as="geometry" />
        </mxCell>
        <mxCell id="6SvywFntV4BqXfso9tdv-298" value="&lt;span style=&quot;text-align: center;&quot;&gt;Serve ramen&lt;/span&gt;" style="text;strokeColor=#d79b00;fillColor=#ffe6cc;align=left;verticalAlign=middle;spacingLeft=4;spacingRight=4;overflow=hidden;points=[[0,0.5],[1,0.5]];portConstraint=eastwest;rotatable=0;whiteSpace=wrap;html=1;" parent="6SvywFntV4BqXfso9tdv-296" vertex="1">
          <mxGeometry y="60" width="140" height="30" as="geometry" />
        </mxCell>
        <mxCell id="6SvywFntV4BqXfso9tdv-299" value="&lt;div style=&quot;text-align: center;&quot;&gt;&lt;span style=&quot;background-color: transparent; color: light-dark(rgb(0, 0, 0), rgb(255, 255, 255));&quot;&gt;Detecting force&lt;/span&gt;&lt;/div&gt;" style="text;strokeColor=#d79b00;fillColor=#ffe6cc;align=left;verticalAlign=middle;spacingLeft=4;spacingRight=4;overflow=hidden;points=[[0,0.5],[1,0.5]];portConstraint=eastwest;rotatable=0;whiteSpace=wrap;html=1;" parent="6SvywFntV4BqXfso9tdv-296" vertex="1">
          <mxGeometry y="90" width="140" height="30" as="geometry" />
        </mxCell>
        <mxCell id="6SvywFntV4BqXfso9tdv-300" style="edgeStyle=orthogonalEdgeStyle;rounded=0;orthogonalLoop=1;jettySize=auto;html=1;exitX=1;exitY=0.5;exitDx=0;exitDy=0;entryX=0;entryY=0.5;entryDx=0;entryDy=0;" parent="6SvywFntV4BqXfso9tdv-1" source="6SvywFntV4BqXfso9tdv-293" target="6SvywFntV4BqXfso9tdv-264" edge="1">
          <mxGeometry relative="1" as="geometry">
            <mxPoint x="-1379" y="3597" as="targetPoint" />
            <Array as="points">
              <mxPoint x="-1555" y="3496" />
              <mxPoint x="-1555" y="3597" />
            </Array>
          </mxGeometry>
        </mxCell>
        <mxCell id="6SvywFntV4BqXfso9tdv-301" style="edgeStyle=orthogonalEdgeStyle;rounded=0;orthogonalLoop=1;jettySize=auto;html=1;exitX=1;exitY=0.5;exitDx=0;exitDy=0;" parent="6SvywFntV4BqXfso9tdv-1" source="6SvywFntV4BqXfso9tdv-298" target="6SvywFntV4BqXfso9tdv-264" edge="1">
          <mxGeometry relative="1" as="geometry">
            <mxPoint x="-1379" y="3597" as="targetPoint" />
            <Array as="points">
              <mxPoint x="-1555" y="3686" />
              <mxPoint x="-1555" y="3597" />
            </Array>
          </mxGeometry>
        </mxCell>
        <mxCell id="6SvywFntV4BqXfso9tdv-302" style="edgeStyle=orthogonalEdgeStyle;rounded=0;orthogonalLoop=1;jettySize=auto;html=1;entryX=0.5;entryY=1;entryDx=0;entryDy=0;" parent="6SvywFntV4BqXfso9tdv-1" target="6SvywFntV4BqXfso9tdv-306" edge="1">
          <mxGeometry relative="1" as="geometry">
            <mxPoint x="-2285" y="3591" as="sourcePoint" />
          </mxGeometry>
        </mxCell>
        <mxCell id="6SvywFntV4BqXfso9tdv-303" value="" style="swimlane;startSize=0;fillColor=#dae8fc;strokeColor=#6c8ebf;" parent="6SvywFntV4BqXfso9tdv-1" vertex="1">
          <mxGeometry x="-2245" y="3431" width="300" height="140" as="geometry" />
        </mxCell>
        <mxCell id="6SvywFntV4BqXfso9tdv-304" style="edgeStyle=orthogonalEdgeStyle;rounded=0;orthogonalLoop=1;jettySize=auto;html=1;entryX=0;entryY=0.5;entryDx=0;entryDy=0;fillColor=#dae8fc;strokeColor=#6c8ebf;exitX=1;exitY=0.5;exitDx=0;exitDy=0;" parent="6SvywFntV4BqXfso9tdv-303" source="6SvywFntV4BqXfso9tdv-305" target="6SvywFntV4BqXfso9tdv-306" edge="1">
          <mxGeometry relative="1" as="geometry">
            <mxPoint x="260" y="70" as="sourcePoint" />
          </mxGeometry>
        </mxCell>
        <mxCell id="6SvywFntV4BqXfso9tdv-305" value="robot state&lt;div&gt;== IDLE&lt;/div&gt;" style="rhombus;whiteSpace=wrap;html=1;fillColor=#dae8fc;strokeColor=#6c8ebf;" parent="6SvywFntV4BqXfso9tdv-303" vertex="1">
          <mxGeometry x="20" y="20" width="100" height="100" as="geometry" />
        </mxCell>
        <mxCell id="6SvywFntV4BqXfso9tdv-306" value="name&amp;nbsp;&lt;span style=&quot;color: light-dark(rgb(0, 0, 0), rgb(255, 255, 255)); background-color: transparent;&quot;&gt;==&amp;nbsp;&lt;/span&gt;&lt;div&gt;&lt;span style=&quot;background-color: transparent; color: light-dark(rgb(0, 0, 0), rgb(255, 255, 255));&quot;&gt;(&lt;/span&gt;&lt;span style=&quot;background-color: transparent; color: light-dark(rgb(0, 0, 0), rgb(255, 255, 255));&quot;&gt;tri-&lt;/span&gt;&lt;span style=&quot;background-color: transparent; color: light-dark(rgb(0, 0, 0), rgb(255, 255, 255));&quot;&gt;) Gimbap&lt;/span&gt;&lt;/div&gt;" style="rhombus;whiteSpace=wrap;html=1;fillColor=#dae8fc;strokeColor=#6c8ebf;" parent="6SvywFntV4BqXfso9tdv-303" vertex="1">
          <mxGeometry x="170" y="20" width="100" height="100" as="geometry" />
        </mxCell>
        <mxCell id="6SvywFntV4BqXfso9tdv-307" style="edgeStyle=orthogonalEdgeStyle;rounded=0;orthogonalLoop=1;jettySize=auto;html=1;entryX=0.5;entryY=0;entryDx=0;entryDy=0;" parent="6SvywFntV4BqXfso9tdv-1" target="6SvywFntV4BqXfso9tdv-311" edge="1">
          <mxGeometry relative="1" as="geometry">
            <mxPoint x="-2285" y="3591" as="sourcePoint" />
          </mxGeometry>
        </mxCell>
        <mxCell id="6SvywFntV4BqXfso9tdv-308" value="" style="swimlane;startSize=0;fillColor=#ffe6cc;strokeColor=#d79b00;" parent="6SvywFntV4BqXfso9tdv-1" vertex="1">
          <mxGeometry x="-2245" y="3611" width="300" height="140" as="geometry" />
        </mxCell>
        <mxCell id="6SvywFntV4BqXfso9tdv-309" style="edgeStyle=orthogonalEdgeStyle;rounded=0;orthogonalLoop=1;jettySize=auto;html=1;entryX=0;entryY=0.5;entryDx=0;entryDy=0;fillColor=#ffe6cc;strokeColor=#d79b00;exitX=1;exitY=0.5;exitDx=0;exitDy=0;" parent="6SvywFntV4BqXfso9tdv-308" source="6SvywFntV4BqXfso9tdv-310" target="6SvywFntV4BqXfso9tdv-311" edge="1">
          <mxGeometry relative="1" as="geometry">
            <mxPoint x="260" y="70" as="sourcePoint" />
          </mxGeometry>
        </mxCell>
        <mxCell id="6SvywFntV4BqXfso9tdv-310" value="robot state&lt;div&gt;== IDLE&lt;/div&gt;" style="rhombus;whiteSpace=wrap;html=1;fillColor=#ffe6cc;strokeColor=#d79b00;" parent="6SvywFntV4BqXfso9tdv-308" vertex="1">
          <mxGeometry x="20" y="20" width="100" height="100" as="geometry" />
        </mxCell>
        <mxCell id="6SvywFntV4BqXfso9tdv-311" value="name&lt;br&gt;&lt;div&gt;== Ramen&lt;/div&gt;" style="rhombus;whiteSpace=wrap;html=1;fillColor=#ffe6cc;strokeColor=#d79b00;" parent="6SvywFntV4BqXfso9tdv-308" vertex="1">
          <mxGeometry x="170" y="20" width="100" height="100" as="geometry" />
        </mxCell>
        <mxCell id="6SvywFntV4BqXfso9tdv-312" style="edgeStyle=orthogonalEdgeStyle;rounded=0;orthogonalLoop=1;jettySize=auto;html=1;exitX=1;exitY=0.5;exitDx=0;exitDy=0;entryX=-0.007;entryY=0.331;entryDx=0;entryDy=0;entryPerimeter=0;" parent="6SvywFntV4BqXfso9tdv-1" source="6SvywFntV4BqXfso9tdv-269" target="6SvywFntV4BqXfso9tdv-298" edge="1">
          <mxGeometry relative="1" as="geometry">
            <mxPoint x="-1825" y="3681" as="sourcePoint" />
            <Array as="points">
              <mxPoint x="-1766" y="3295" />
              <mxPoint x="-1766" y="3681" />
            </Array>
          </mxGeometry>
        </mxCell>
        <mxCell id="6SvywFntV4BqXfso9tdv-313" value="&lt;div align=&quot;center&quot;&gt;call&lt;/div&gt;&lt;div align=&quot;center&quot;&gt;Device&lt;/div&gt;&lt;div align=&quot;center&quot;&gt;Manager&lt;/div&gt;" style="edgeLabel;html=1;align=center;verticalAlign=middle;resizable=0;points=[];" parent="6SvywFntV4BqXfso9tdv-1" vertex="1" connectable="0">
          <mxGeometry x="-1366" y="3828" as="geometry">
            <mxPoint x="-160" y="-230" as="offset" />
          </mxGeometry>
        </mxCell>
        <mxCell id="6SvywFntV4BqXfso9tdv-314" style="edgeStyle=orthogonalEdgeStyle;rounded=0;orthogonalLoop=1;jettySize=auto;html=1;entryX=0;entryY=0.5;entryDx=0;entryDy=0;" parent="6SvywFntV4BqXfso9tdv-1" source="6SvywFntV4BqXfso9tdv-311" target="6SvywFntV4BqXfso9tdv-269" edge="1">
          <mxGeometry relative="1" as="geometry">
            <Array as="points">
              <mxPoint x="-1926" y="3681" />
              <mxPoint x="-1926" y="3295" />
            </Array>
          </mxGeometry>
        </mxCell>
        <mxCell id="6SvywFntV4BqXfso9tdv-315" style="edgeStyle=orthogonalEdgeStyle;rounded=0;orthogonalLoop=1;jettySize=auto;html=1;exitX=1;exitY=0.5;exitDx=0;exitDy=0;entryX=0;entryY=0.5;entryDx=0;entryDy=0;" parent="6SvywFntV4BqXfso9tdv-1" source="6SvywFntV4BqXfso9tdv-306" target="6SvywFntV4BqXfso9tdv-269" edge="1">
          <mxGeometry relative="1" as="geometry">
            <Array as="points">
              <mxPoint x="-1926" y="3501" />
              <mxPoint x="-1926" y="3295" />
            </Array>
          </mxGeometry>
        </mxCell>
        <mxCell id="6SvywFntV4BqXfso9tdv-316" style="edgeStyle=orthogonalEdgeStyle;rounded=0;orthogonalLoop=1;jettySize=auto;html=1;exitX=1;exitY=0.5;exitDx=0;exitDy=0;" parent="6SvywFntV4BqXfso9tdv-1" source="6SvywFntV4BqXfso9tdv-269" target="6SvywFntV4BqXfso9tdv-292" edge="1">
          <mxGeometry relative="1" as="geometry">
            <Array as="points">
              <mxPoint x="-1766" y="3295" />
              <mxPoint x="-1766" y="3466" />
            </Array>
          </mxGeometry>
        </mxCell>
      </root>
    </mxGraphModel>
  </diagram>
</mxfile>
